<svg width="50" height="38" viewBox="0 0 50 38" fill="none" xmlns="http://www.w3.org/2000/svg">
<path fill-rule="evenodd" clip-rule="evenodd" d="M46.25 37.3333C46.25 37.3333 49.3333 37.3333 49.3333 34.2222C49.3333 31.1111 46.25 21.7778 33.9167 21.7778C21.5833 21.7778 18.5 31.1111 18.5 34.2222C18.5 37.3333 21.5833 37.3333 21.5833 37.3333H46.25ZM21.6512 34.2222H46.1822C46.1966 34.2205 46.211 34.2184 46.2253 34.216L46.25 34.2098C46.2438 33.3884 45.7351 31.0053 43.9067 28.8587C42.2047 26.8458 39.2138 24.8889 33.9167 24.8889C28.6226 24.8889 25.6318 26.8489 23.9267 28.8587C22.0982 31.0053 21.5864 33.3916 21.5833 34.2098C21.6059 34.2142 21.6285 34.2183 21.6512 34.2222ZM33.9167 15.5556C35.5522 15.5556 37.1207 14.9 38.2772 13.7331C39.4336 12.5662 40.0833 10.9836 40.0833 9.33333C40.0833 7.6831 39.4336 6.10045 38.2772 4.93356C37.1207 3.76666 35.5522 3.11111 33.9167 3.11111C32.2812 3.11111 30.7127 3.76666 29.5562 4.93356C28.3997 6.10045 27.75 7.6831 27.75 9.33333C27.75 10.9836 28.3997 12.5662 29.5562 13.7331C30.7127 14.9 32.2812 15.5556 33.9167 15.5556ZM43.1667 9.33333C43.1667 10.559 42.9274 11.7727 42.4626 12.905C41.9977 14.0374 41.3163 15.0663 40.4574 15.933C39.5985 16.7997 38.5787 17.4872 37.4565 17.9562C36.3342 18.4253 35.1314 18.6667 33.9167 18.6667C32.7019 18.6667 31.4991 18.4253 30.3768 17.9562C29.2546 17.4872 28.2349 16.7997 27.3759 15.933C26.517 15.0663 25.8356 14.0374 25.3708 12.905C24.9059 11.7727 24.6667 10.559 24.6667 9.33333C24.6667 6.85798 25.6412 4.48401 27.3759 2.73367C29.1106 0.983331 31.4634 0 33.9167 0C36.3699 0 38.7227 0.983331 40.4574 2.73367C42.1921 4.48401 43.1667 6.85798 43.1667 9.33333ZM21.386 22.6489C20.1526 22.257 18.8812 21.9994 17.5935 21.8804C16.8699 21.811 16.1435 21.7768 15.4167 21.7778C3.08333 21.7778 0 31.1111 0 34.2222C0 36.2973 1.02675 37.3333 3.08333 37.3333H16.0827C15.6256 36.3621 15.3976 35.2972 15.4167 34.2222C15.4167 31.08 16.5791 27.8693 18.7775 25.1876C19.5268 24.2729 20.3993 23.4173 21.386 22.6489ZM15.17 24.8889C10.027 24.9511 7.10708 26.88 5.42667 28.8587C3.58592 31.0178 3.08333 33.4102 3.08333 34.2222H12.3333C12.3333 30.9711 13.3293 27.7324 15.17 24.8889ZM4.625 10.8889C4.625 8.41353 5.59955 6.03957 7.33426 4.28923C9.06897 2.53889 11.4217 1.55556 13.875 1.55556C16.3283 1.55556 18.681 2.53889 20.4157 4.28923C22.1504 6.03957 23.125 8.41353 23.125 10.8889C23.125 13.3642 22.1504 15.7382 20.4157 17.4886C18.681 19.2389 16.3283 20.2222 13.875 20.2222C11.4217 20.2222 9.06897 19.2389 7.33426 17.4886C5.59955 15.7382 4.625 13.3642 4.625 10.8889ZM13.875 4.66667C12.2395 4.66667 10.671 5.32222 9.51451 6.48911C8.35803 7.65601 7.70833 9.23865 7.70833 10.8889C7.70833 12.5391 8.35803 14.1218 9.51451 15.2887C10.671 16.4556 12.2395 17.1111 13.875 17.1111C15.5105 17.1111 17.079 16.4556 18.2355 15.2887C19.392 14.1218 20.0417 12.5391 20.0417 10.8889C20.0417 9.23865 19.392 7.65601 18.2355 6.48911C17.079 5.32222 15.5105 4.66667 13.875 4.66667Z" fill="#09529D"/>
</svg>
